<?xml version="1.0" encoding="UTF-8" standalone="no"?>
<svg
   xmlns:dc="http://purl.org/dc/elements/1.1/"
   xmlns:cc="http://creativecommons.org/ns#"
   xmlns:rdf="http://www.w3.org/1999/02/22-rdf-syntax-ns#"
   xmlns:svg="http://www.w3.org/2000/svg"
   xmlns="http://www.w3.org/2000/svg"
   xmlns:sodipodi="http://sodipodi.sourceforge.net/DTD/sodipodi-0.dtd"
   xmlns:inkscape="http://www.inkscape.org/namespaces/inkscape"
   viewBox="0 0 24 24"
   width="48"
   height="48"
   fill="grey"
   version="1.1"
   id="svg4"
   sodipodi:docname="icon-white.svg"
   inkscape:version="1.0.2 (e86c870879, 2021-01-15)">
  <metadata
     id="metadata10">
    <rdf:RDF>
      <cc:Work
         rdf:about="">
        <dc:format>image/svg+xml</dc:format>
        <dc:type
           rdf:resource="http://purl.org/dc/dcmitype/StillImage" />
      </cc:Work>
    </rdf:RDF>
  </metadata>
  <defs
     id="defs8" />
  <sodipodi:namedview
     pagecolor="#ffffff"
     bordercolor="#666666"
     borderopacity="1"
     objecttolerance="10"
     gridtolerance="10"
     guidetolerance="10"
     inkscape:pageopacity="0"
     inkscape:pageshadow="2"
     inkscape:window-width="1366"
     inkscape:window-height="704"
     id="namedview6"
     showgrid="false"
     inkscape:zoom="7.4541427"
     inkscape:cx="5.634559"
     inkscape:cy="30.221077"
     inkscape:window-x="0"
     inkscape:window-y="0"
     inkscape:window-maximized="1"
     inkscape:current-layer="svg4" />
  <path
     d="M 6.4358924,0.48965789 V 3.0027925 H 10.801586 V 9.3324003 H 7.1752219 c -2.0728337,0 -3.7079109,0.6257636 -4.8973564,1.8849107 -1.1948101,1.264796 -1.78822359,3.001778 -1.78822359,5.203538 0,2.201622 0.59338929,3.94029 1.78822359,5.205086 1.1894579,1.259131 2.8245227,1.884917 4.8973564,1.884917 2.0728331,0 3.7094861,-0.625751 4.8989251,-1.884917 1.194803,-1.264796 1.788229,-3.00334 1.788229,-5.205086 v -4.59131 h 9.647982 V 9.1229117 H 13.862376 V 0.48990022 Z M 7.1753432,11.829415 h 3.6263648 v 4.59118 c 0,1.482054 -0.319557,2.67805 -0.9665765,3.44912 -0.6417443,0.764749 -1.5427526,1.143801 -2.6596203,1.143801 -1.1169404,0 -2.016373,-0.379034 -2.6580432,-1.143801 -0.6470408,-0.77107 -0.9665794,-1.967066 -0.9665794,-3.44912 0,-1.482053 0.3195632,-2.676343 0.9665794,-3.447536 0.6417437,-0.764745 1.5411752,-1.143799 2.6580432,-1.143799 z"
     id="path2"
     style="stroke:#808080;stroke-width:0.979284;stroke-miterlimit:4;stroke-dasharray:none;stroke-opacity:1" />
</svg>
