<svg
  xmlns="http://www.w3.org/2000/svg"
  viewBox="0 0 24 24"
  width="48"
  height="48"
  fill="black"
>
  <path
    d="m7.4077 2.4999v2.0742h3.6032v5.2241h-2.993c-1.7108 0-3.0603 0.51647-4.042 1.5557-0.98613 1.0439-1.4759 2.4775-1.4759 4.2947 0 1.8171 0.48975 3.2521 1.4759 4.296 0.98171 1.0392 2.3312 1.5557 4.042 1.5557 1.7108 0 3.0616-0.51647 4.0433-1.5557 0.98613-1.0439 1.4759-2.4788 1.4759-4.296v-3.7894h7.9629v-2.2339h-7.9629v-7.1252zm0.6103 9.3592h2.993v3.7893c0 1.2232-0.26375 2.2103-0.79776 2.8467-0.52966 0.63118-1.2733 0.94403-2.1951 0.94403-0.92186 0-1.6642-0.31283-2.1938-0.94403-0.53403-0.6364-0.79776-1.6235-0.79776-2.8467 0-1.2232 0.26375-2.2089 0.79776-2.8454 0.52966-0.63118 1.272-0.94403 2.1938-0.94403z"
  />
</svg>
